<?xml version="1.0" standalone="no"?>
<!DOCTYPE svg PUBLIC "-//W3C//DTD SVG 20010904//EN"
 "http://www.w3.org/TR/2001/REC-SVG-20010904/DTD/svg10.dtd">
<svg version="1.0" xmlns="http://www.w3.org/2000/svg"
 width="2000.000000pt" height="2000.000000pt" viewBox="0 0 2000.000000 2000.000000"
 preserveAspectRatio="xMidYMid meet">

<g transform="translate(0.000000,2000.000000) scale(0.100000,-0.100000)"
fill="#000000" stroke="none">
<path d="M7290 16430 l0 -1360 65 0 65 0 0 -200 0 -200 510 0 510 0 0 1380 0
1380 -530 0 -530 0 0 115 0 115 530 0 530 0 0 65 0 65 -575 0 -575 0 0 -1360z
m730 555 c18 -21 4 -64 -23 -70 -12 -3 -94 -4 -181 -3 -174 3 -186 8 -172 61
l6 27 179 0 c146 0 181 -3 191 -15z m-2 -267 c18 -18 14 -56 -7 -68 -11 -6
-87 -10 -176 -10 -89 0 -165 4 -176 10 -21 12 -25 50 -7 68 17 17 349 17 366
0z m0 -270 c18 -18 14 -56 -7 -68 -11 -6 -87 -10 -176 -10 -89 0 -165 4 -176
10 -21 12 -25 50 -7 68 17 17 349 17 366 0z m160 -270 c7 -7 12 -21 12 -33 0
-41 -16 -45 -188 -45 -93 0 -172 4 -183 10 -21 12 -25 50 -7 68 17 17 349 17
366 0z m-167 -268 c11 -6 19 -21 19 -35 0 -14 -8 -29 -19 -35 -11 -6 -90 -10
-183 -10 -172 0 -188 4 -188 45 0 41 16 45 188 45 93 0 172 -4 183 -10z m167
-272 c7 -7 12 -21 12 -33 0 -41 -16 -45 -195 -45 -179 0 -195 4 -195 45 0 41
16 45 195 45 120 0 175 -4 183 -12z m-7 -268 c21 -12 25 -50 7 -68 -8 -8 -63
-12 -183 -12 -179 0 -195 4 -195 45 0 41 16 45 188 45 93 0 172 -4 183 -10z"/>
<path d="M11578 17593 c23 -2 61 -2 85 0 23 2 4 4 -43 4 -47 0 -66 -2 -42 -4z"/>
<path d="M7486 17565 c-19 -20 -20 -26 -3 -49 27 -38 95 2 71 42 -15 23 -48
27 -68 7z"/>
<path d="M11578 17543 c23 -2 61 -2 85 0 23 2 4 4 -43 4 -47 0 -66 -2 -42 -4z"/>
<path d="M11578 17493 c23 -2 61 -2 85 0 23 2 4 4 -43 4 -47 0 -66 -2 -42 -4z"/>
<path d="M9892 17203 l3 -28 341 -3 c359 -2 374 -1 358 42 -5 14 -42 16 -356
16 l-349 0 3 -27z"/>
<path d="M10634 17215 c-12 -30 7 -35 132 -35 105 0 126 3 131 16 10 27 -17
34 -140 34 -94 0 -119 -3 -123 -15z"/>
<path d="M13540 17113 c-94 -12 -155 -48 -196 -118 -32 -55 -36 -149 -10 -240
22 -75 85 -201 142 -282 24 -35 42 -63 41 -63 -1 0 -47 12 -102 26 -140 36
-271 38 -341 3 -31 -15 -60 -40 -79 -67 -27 -40 -30 -51 -30 -125 0 -65 5 -91
23 -124 30 -57 123 -155 192 -204 l58 -40 -43 -44 c-52 -51 -69 -103 -54 -157
22 -82 103 -123 237 -121 53 1 78 5 92 18 17 15 22 13 88 -38 174 -134 446
-220 672 -213 127 5 220 31 304 87 32 22 60 38 62 36 2 -2 4 -42 5 -90 1 -48
5 -87 9 -87 4 0 15 9 25 20 29 32 80 36 120 9 64 -45 73 -116 25 -217 -29 -62
-117 -162 -143 -162 -8 0 -19 -21 -26 -50 -13 -52 -51 -111 -109 -172 -20 -21
-33 -38 -29 -38 13 0 186 89 242 125 189 122 319 274 378 444 39 113 49 291
23 422 -32 159 -109 307 -223 429 -68 72 -73 81 -73 122 0 164 -151 467 -261
523 -94 49 -182 -27 -204 -178 l-8 -49 -43 81 c-109 205 -272 365 -471 465
-94 47 -223 78 -293 69z"/>
<path d="M9716 16974 c-17 -44 -8 -44 463 -42 l446 3 0 25 0 25 -451 3 c-411
2 -452 1 -458 -14z"/>
<path d="M11103 16979 c-6 -6 -9 -18 -6 -25 4 -11 40 -14 178 -14 152 0 174 2
179 17 4 9 1 20 -6 25 -20 12 -332 10 -345 -3z"/>
<path d="M9314 16735 c-4 -8 -1 -22 6 -30 10 -12 50 -15 234 -15 121 0 227 4
234 9 8 5 12 17 10 27 -3 18 -17 19 -241 22 -206 2 -238 0 -243 -13z"/>
<path d="M9856 16734 c-3 -9 -4 -20 0 -25 3 -5 88 -9 190 -9 160 0 185 2 191
16 3 9 0 20 -8 25 -8 5 -93 9 -190 9 -153 0 -178 -2 -183 -16z"/>
<path d="M10976 16734 c-14 -36 12 -45 128 -42 l111 3 3 28 3 27 -119 0 c-101
0 -121 -2 -126 -16z"/>
<path d="M9557 16263 c-13 -12 -7 -41 9 -47 28 -11 91 -6 103 8 23 28 2 46
-53 46 -29 0 -56 -3 -59 -7z"/>
<path d="M9720 16255 c-6 -8 -9 -19 -5 -25 8 -13 601 -14 609 -1 4 5 3 16 0
25 -5 14 -41 16 -299 16 -244 0 -295 -2 -305 -15z"/>
<path d="M9676 16013 c-4 -9 -1 -20 6 -25 7 -4 159 -7 338 -5 318 2 325 2 325
22 0 20 -8 20 -331 23 -303 2 -332 1 -338 -15z"/>
<path d="M10846 16014 c-3 -9 -4 -20 0 -25 3 -5 97 -9 209 -9 112 0 206 4 209
9 4 5 3 16 0 25 -5 14 -33 16 -209 16 -176 0 -204 -2 -209 -16z"/>
<path d="M9766 15774 c-15 -39 9 -44 189 -44 141 0 175 3 185 15 7 8 10 22 6
30 -4 13 -34 15 -190 15 -161 0 -185 -2 -190 -16z"/>
<path d="M10607 15783 c-13 -12 -7 -41 9 -47 9 -3 156 -6 328 -6 327 0 356 4
340 43 -6 16 -33 17 -338 17 -183 0 -336 -3 -339 -7z"/>
<path d="M9854 15326 c-12 -30 7 -36 122 -36 112 0 114 0 110 23 -3 21 -7 22
-115 25 -91 2 -112 0 -117 -12z"/>
<path d="M10144 15325 c-4 -8 -1 -22 6 -30 11 -13 62 -15 340 -15 344 0 360 2
344 44 -5 14 -41 16 -345 16 -294 0 -340 -2 -345 -15z"/>
<path d="M14072 15298 c-14 -14 -16 -106 -2 -142 11 -29 44 -35 54 -10 3 9 6
42 6 73 0 43 -5 62 -18 74 -22 20 -25 20 -40 5z"/>
<path d="M13647 15273 c-4 -3 -7 -34 -7 -67 0 -74 20 -112 51 -96 16 9 19 22
19 71 0 33 -5 69 -10 80 -10 19 -40 26 -53 12z"/>
<path d="M11440 14670 l0 -470 795 0 795 0 0 470 0 470 -795 0 -795 0 0 -470z
m864 48 c22 -31 20 -80 -5 -112 -28 -35 -85 -36 -127 -1 -27 23 -28 27 -22 71
8 51 29 74 68 74 14 0 21 4 16 11 -12 20 55 -21 70 -43z m-383 22 c10 -6 19
-17 19 -25 0 -8 4 -15 9 -15 17 0 -7 -84 -29 -102 -30 -24 -81 -23 -114 3 -34
27 -37 91 -4 126 23 25 83 32 119 13z m724 4 c20 -8 45 -56 45 -87 0 -76 -122
-106 -165 -40 -21 31 -13 85 16 114 19 19 71 25 104 13z"/>
<path d="M9563 15084 c-11 -29 14 -35 148 -32 126 3 134 4 134 23 0 19 -7 20
-138 22 -115 1 -139 -1 -144 -13z"/>
<path d="M9907 15093 c-13 -12 -7 -41 9 -47 9 -3 62 -6 119 -6 107 0 135 10
121 45 -4 12 -27 15 -124 15 -65 0 -122 -3 -125 -7z"/>
<path d="M14352 14450 c-40 -5 -76 -11 -79 -14 -8 -8 29 -36 39 -29 5 2 11 -3
14 -11 3 -9 10 -16 16 -16 22 0 118 -137 118 -168 0 -10 4 -22 9 -27 8 -8 31
-117 31 -146 0 -8 -75 -1 -115 11 -16 5 -74 15 -127 22 -54 7 -98 15 -98 19 0
4 -8 5 -18 3 -9 -3 -28 -1 -42 4 -18 7 -32 4 -57 -10 -18 -11 -38 -16 -44 -12
-7 4 -9 3 -6 -3 3 -5 -12 -20 -35 -31 -30 -17 -39 -19 -34 -7 4 12 2 13 -14 2
-11 -6 -23 -19 -25 -28 -3 -9 -31 -31 -63 -48 -31 -18 -75 -43 -97 -56 l-40
-24 -8 27 c-12 46 -21 236 -10 229 6 -4 10 14 11 45 0 28 5 54 10 57 5 3 15
23 21 43 7 21 24 47 38 58 l26 20 -92 0 c-213 0 -412 -82 -666 -273 -270 -204
-482 -433 -767 -830 -12 -17 -16 -16 -68 4 -30 12 -161 59 -290 104 -649 230
-804 285 -806 282 -3 -3 -77 -163 -131 -282 -25 -55 -61 -133 -80 -174 -18
-40 -33 -74 -31 -75 3 -2 101 -83 233 -191 245 -203 626 -478 842 -608 303
-182 434 -201 628 -88 114 67 298 251 398 398 23 34 45 63 49 63 6 0 14 -1233
10 -1525 -1 -49 -15 -367 -31 -705 -17 -338 -47 -955 -67 -1370 -19 -415 -37
-756 -38 -758 -2 -2 -2859 0 -3802 2 -166 1 -301 -1 -299 -4 4 -7 -682 -2
-723 5 -39 7 -53 34 -47 96 5 49 6 50 34 52 11 1 21 6 21 12 0 5 4 4 9 -3 4
-8 11 78 15 200 4 117 11 217 16 222 5 4 57 11 117 13 82 4 123 1 173 -12 199
-52 330 -185 347 -350 7 -66 0 -64 138 -46 54 7 58 9 35 18 -27 12 -56 42 -83
85 -19 30 -23 116 -8 164 5 16 21 81 35 144 14 63 39 171 55 240 16 69 39 172
52 230 25 124 30 145 59 270 12 52 26 113 30 135 5 22 14 62 20 90 5 27 17 74
24 105 8 30 20 78 26 105 17 70 32 117 46 138 8 13 7 31 -8 80 -67 214 -165
405 -272 524 -40 44 -44 55 -59 143 -43 253 -197 632 -380 930 l-46 75 18 31
c39 65 55 136 55 234 -1 81 -6 108 -33 185 -18 50 -36 119 -41 155 -24 188
-139 319 -330 376 -130 39 -581 45 -740 9 -328 -73 -573 -295 -759 -685 -104
-218 -148 -402 -176 -730 -28 -326 -65 -442 -191 -595 -124 -151 -463 -351
-774 -455 -66 -22 -607 -180 -617 -180 -8 0 4 -111 32 -315 13 -94 27 -212 31
-263 4 -51 10 -92 14 -92 4 0 24 28 46 63 61 99 272 386 285 387 4 0 15 -42
25 -92 27 -131 27 -444 1 -538 -25 -88 -77 -194 -132 -268 l-45 -62 58 0 c89
0 87 5 74 -167 -17 -220 -74 -522 -122 -647 l-11 -29 -732 4 -732 4 0 -195 0
-195 295 -2 295 -2 5 -2663 5 -2663 185 0 185 0 0 2672 c0 2163 2 2669 13
2661 7 -6 15 -8 19 -4 4 3 -2 13 -13 21 -10 8 -14 15 -8 15 6 0 19 -9 28 -19
17 -18 34 -20 263 -21 168 0 249 3 259 11 7 6 19 9 26 6 8 -4 7 -6 -4 -6 -41
-2 -12 -22 86 -60 202 -79 381 -107 635 -98 91 3 207 13 256 22 179 31 442
102 471 126 7 5 24 7 40 3 19 -5 25 -4 20 5 -5 7 2 11 18 11 14 0 28 -4 31
-10 10 -16 3135 -14 3135 3 0 9 2 9 8 0 6 -10 319 -12 1506 -10 l1498 2 -7
-95 c-6 -91 -54 -1099 -150 -3130 -25 -525 -48 -988 -51 -1029 l-6 -73 -59 63
c-56 61 -58 62 -44 27 9 -22 11 -39 5 -43 -9 -6 -102 -42 -285 -110 -164 -61
-328 -124 -331 -128 -12 -11 94 -339 107 -331 5 3 6 -1 4 -8 -5 -13 38 -106
54 -118 3 -3 14 -18 23 -35 10 -16 22 -29 28 -27 5 1 9 -3 8 -10 -2 -6 18 -26
44 -43 l46 -32 -51 -34 c-64 -42 -72 -72 -30 -110 55 -51 164 -74 408 -85 299
-13 714 39 846 106 83 43 113 132 113 340 1 124 -14 282 -30 342 -4 13 3 17
28 20 l33 3 52 325 c300 1850 561 3426 573 3460 l8 25 1 -26 c1 -15 21 -280
46 -590 25 -310 77 -958 115 -1439 39 -481 86 -1068 105 -1304 19 -236 35
-435 35 -443 0 -7 7 -13 15 -13 17 0 17 -1 15 -87 -2 -73 6 -106 23 -96 7 4 7
0 -1 -10 -8 -9 -11 -26 -7 -39 5 -20 5 -21 -5 -5 -7 10 -9 25 -6 33 3 8 2 14
-3 14 -4 0 -14 -26 -20 -57 -29 -132 -91 -180 -377 -293 -186 -73 -223 -101
-210 -155 8 -32 90 -71 186 -89 115 -22 365 -30 520 -16 74 6 166 11 204 10
38 -1 72 3 75 7 3 5 48 17 99 26 195 37 250 72 284 180 20 63 23 93 22 232 0
139 -12 269 -30 328 -5 15 4 17 89 17 l95 0 6 283 c14 666 19 1222 25 2704 5
1365 4 1570 -8 1560 -12 -10 -13 -9 -8 6 4 10 7 21 7 23 0 3 4 3 9 -1 6 -3 10
68 11 174 0 114 -3 182 -10 186 -6 4 -10 97 -10 263 0 416 -19 1095 -51 1787
-11 258 -41 579 -65 700 l-15 81 51 364 c69 497 73 525 75 528 1 1 74 9 161
17 520 50 806 103 945 177 31 16 63 41 70 55 72 135 -154 573 -670 1302 -64
90 -143 202 -176 250 -235 339 -650 557 -1145 601 -128 11 -200 11 -308 0z
m-199 -1804 c26 -8 59 -22 74 -31 25 -17 25 -18 18 -101 l-7 -84 39 1 c21 0
32 3 26 6 -26 10 -12 43 32 73 87 60 164 74 246 44 59 -21 181 -44 232 -44
l42 0 68 -193 c68 -195 74 -217 58 -217 -6 0 -29 -27 -52 -61 -33 -47 -56 -67
-99 -89 -126 -63 -274 -95 -337 -72 -27 9 -32 7 -56 -24 -33 -41 -77 -54 -179
-54 -69 0 -78 -2 -78 -19 0 -10 -9 -30 -21 -45 l-20 -26 -184 0 c-101 0 -191
3 -199 6 -36 14 -33 -8 -81 523 -33 364 -33 366 6 387 85 44 358 56 472 20z
m-6000 -178 l78 -53 34 -110 c89 -284 89 -579 0 -755 -48 -95 -143 -176 -239
-205 -19 -5 -19 -33 0 -128 l6 -29 92 7 92 7 38 -42 c54 -60 80 -123 72 -174
-3 -23 -7 -80 -9 -128 -2 -98 -18 -129 -78 -161 -52 -27 -149 -20 -223 18 -48
24 -59 27 -67 14 -5 -7 -9 -19 -9 -26 0 -18 -72 -85 -107 -100 -114 -47 -213
32 -226 182 -3 33 -6 61 -6 63 -1 1 -10 -2 -20 -8 -48 -25 -150 5 -190 56 -32
41 -25 112 19 199 l33 65 63 0 c89 0 95 4 88 54 -10 60 -18 71 -64 85 -145 43
-292 140 -347 230 -28 43 -46 61 -78 74 -50 21 -136 103 -171 164 -34 57 -30
131 7 169 23 23 29 24 87 16 106 -15 302 23 470 89 40 16 74 29 75 29 1 0 0
-22 -1 -48 -5 -61 19 -122 46 -122 11 0 23 7 26 16 16 43 -4 151 -31 161 -10
4 8 18 54 42 90 48 187 117 245 178 52 53 118 157 118 184 0 15 23 38 40 39 3
0 40 -24 83 -52z m-2973 -4478 l25 -8 -24 -1 c-20 -1 -22 -3 -11 -16 11 -13
10 -14 -4 -9 -10 4 -15 13 -12 20 3 8 -1 14 -9 14 -8 0 -15 -5 -15 -12 0 -6
-3 -9 -6 -5 -9 8 5 27 19 26 7 -1 23 -5 37 -9z m1410 -14 c0 -2 -7 -7 -16 -10
-8 -3 -12 -2 -9 4 6 10 25 14 25 6z m8353 -3 c-7 -2 -21 -2 -30 0 -10 3 -4 5
12 5 17 0 24 -2 18 -5z m-5070 -10 c-7 -2 -19 -2 -25 0 -7 3 -2 5 12 5 14 0
19 -2 13 -5z m3007 -3 c0 -5 -5 -10 -11 -10 -5 0 -7 5 -4 10 3 6 8 10 11 10 2
0 4 -4 4 -10z m-6247 -7 c-7 -2 -19 -2 -25 0 -7 3 -2 5 12 5 14 0 19 -2 13 -5z
m8274 1 c-3 -3 -12 -4 -19 -1 -8 3 -5 6 6 6 11 1 17 -2 13 -5z m-8320 -10 c-3
-3 -12 -4 -19 -1 -8 3 -5 6 6 6 11 1 17 -2 13 -5z m7926 -1 c-7 -2 -19 -2 -25
0 -7 3 -2 5 12 5 14 0 19 -2 13 -5z m-890 -10 c-122 -2 -324 -2 -450 0 -125 1
-25 2 222 2 248 0 350 -1 228 -2z m740 0 c-45 -2 -122 -2 -170 0 -48 1 -11 3
82 3 94 0 133 -2 88 -3z m915 0 c-49 -2 -127 -2 -175 0 -49 1 -9 3 87 3 96 0
136 -2 88 -3z m149 1 c-3 -3 -12 -4 -19 -1 -8 3 -5 6 6 6 11 1 17 -2 13 -5z
m-900 -4461 c-3 -10 -5 -2 -5 17 0 19 2 27 5 18 2 -10 2 -26 0 -35z m33 -59
c0 -3 -5 -2 -11 2 -6 3 -15 0 -20 -7 -6 -10 -8 -8 -6 8 1 17 5 20 19 12 10 -5
18 -12 18 -15z m-10 -45 c0 -6 -4 -7 -10 -4 -5 3 -10 11 -10 16 0 6 5 7 10 4
6 -3 10 -11 10 -16z m347 -671 c-3 -8 -6 -5 -6 6 -1 11 2 17 5 13 3 -3 4 -12
1 -19z m-10690 -30 c-3 -8 -6 -5 -6 6 -1 11 2 17 5 13 3 -3 4 -12 1 -19z"/>
<path d="M14230 12335 c0 -13 4 -14 20 -5 11 6 20 13 20 15 0 3 -9 5 -20 5
-11 0 -20 -7 -20 -15z"/>
<path d="M14211 12118 c-7 -73 -15 -154 -18 -180 l-6 -48 80 0 c125 0 138 24
93 170 -16 52 -31 107 -34 121 -4 20 -14 28 -38 33 -17 3 -39 13 -48 21 -16
14 -18 5 -29 -117z"/>
<path d="M7994 12129 c-10 -16 -6 -102 6 -133 26 -69 75 -32 65 49 -10 75 -48
120 -71 84z"/>
<path d="M14270 14389 c0 -5 5 -7 10 -4 6 3 10 8 10 11 0 2 -4 4 -10 4 -5 0
-10 -5 -10 -11z"/>
<path d="M13794 14374 c-18 -14 -18 -15 4 -4 12 6 22 13 22 15 0 8 -5 6 -26
-11z"/>
<path d="M13785 14340 c-3 -6 1 -7 9 -4 18 7 21 14 7 14 -6 0 -13 -4 -16 -10z"/>
<path d="M14270 14331 c0 -5 7 -12 16 -15 14 -5 15 -4 4 9 -14 17 -20 19 -20
6z"/>
<path d="M14202 14190 c-18 -17 -29 -30 -25 -30 9 0 63 48 63 55 0 8 -4 6 -38
-25z"/>
<path d="M13862 14183 c6 -7 14 -13 18 -13 4 0 10 6 13 13 3 7 -4 12 -18 12
-18 0 -21 -3 -13 -12z"/>
<path d="M13967 14139 c13 -13 67 -23 60 -12 -4 6 -20 13 -37 15 -17 3 -27 1
-23 -3z"/>
<path d="M14075 14130 c-27 -7 -27 -8 -5 -8 14 0 36 4 50 8 20 6 21 8 5 8 -11
0 -33 -4 -50 -8z"/>
<path d="M14018 14103 c6 -2 18 -2 25 0 6 3 1 5 -13 5 -14 0 -19 -2 -12 -5z"/>
<path d="M14400 14066 c0 -2 18 -6 39 -8 22 -2 37 0 35 4 -5 8 -74 11 -74 4z"/>
<path d="M9241 10373 c-1 -17 16 -25 25 -12 4 7 3 9 -4 5 -5 -3 -13 0 -15 6
-4 9 -6 10 -6 1z"/>
<path d="M3910 10359 c0 -5 5 -7 10 -4 6 3 10 8 10 11 0 2 -4 4 -10 4 -5 0
-10 -5 -10 -11z"/>
<path d="M3930 10341 c0 -6 4 -13 10 -16 6 -3 7 1 4 9 -7 18 -14 21 -14 7z"/>
<path d="M4060 10111 c5 -11 15 -23 21 -27 6 -3 3 5 -6 20 -20 30 -30 35 -15
7z"/>
<path d="M4036 10093 c-6 -14 -5 -15 5 -6 7 7 10 15 7 18 -3 3 -9 -2 -12 -12z"/>
<path d="M4190 9936 c0 -2 7 -7 16 -10 8 -3 12 -2 9 4 -6 10 -25 14 -25 6z"/>
<path d="M4026 9507 c3 -10 9 -15 12 -12 3 3 0 11 -7 18 -10 9 -11 8 -5 -6z"/>
<path d="M4180 9260 c-6 -11 -8 -20 -6 -20 3 0 10 9 16 20 6 11 8 20 6 20 -3
0 -10 -9 -16 -20z"/>
<path d="M6678 7933 c7 -3 16 -2 19 1 4 3 -2 6 -13 5 -11 0 -14 -3 -6 -6z"/>
<path d="M7202 6143 c3 -218 6 -243 26 -293 32 -78 84 -144 146 -186 91 -60
117 -64 423 -64 l273 0 0 -100 0 -100 160 0 160 0 -2 -1332 -3 -1333 -282 -3
-283 -2 0 -95 0 -95 669 0 c646 0 670 -1 676 -19 7 -25 103 -74 190 -99 284
-81 652 -78 765 6 45 34 57 50 69 91 14 46 6 57 -109 176 -53 55 -111 118
-128 141 -62 82 -152 288 -169 389 -2 17 -8 33 -11 36 -4 4 -41 14 -82 24 -41
9 -122 28 -180 41 -132 31 -261 56 -265 52 -2 -2 -19 -68 -38 -148 -33 -132
-69 -330 -83 -453 l-5 -47 -217 2 -217 3 -3 1333 -2 1332 160 0 160 0 0 100 0
100 278 1 c333 1 343 3 377 76 l24 52 -42 6 c-23 3 -125 14 -227 25 -647 71
-1400 210 -1668 309 -157 58 -361 174 -488 278 -23 18 -44 33 -48 33 -4 0 -6
-107 -4 -237z"/>
</g>
</svg>
